<svg width="200" height="200" viewBox="0 0 200 200" fill="none" xmlns="http://www.w3.org/2000/svg">
<g clip-path="url(#clip0_1_4)">
<path d="M165 188C159.448 168.636 162.687 149.503 165 142.357C151.121 139.59 119.199 153.422 130.302 166.561C139.185 177.073 157.135 185.234 165 188Z" fill="#8F9197" stroke="black"/>
<path d="M158.126 164.673C158.68 158 160.666 148.455 161.59 144.516C163.206 139.651 164.776 124.499 158.126 102.813C149.814 75.7057 96.4774 70.8403 77.0823 84.0464C57.6871 97.2525 54.9164 142.431 63.9213 157.027C71.1252 168.704 108.484 183.208 126.263 189C136.653 183.671 157.572 171.346 158.126 164.673Z" fill="#D4AE93" stroke="black"/>
<path d="M101.359 65.5151L93.7536 69C86.6095 62.7273 67.6201 51.1576 48.815 55.0606C52.1302 52.8644 57.5554 50.519 64.025 49.757C56.8887 47.7015 38.2429 20.1965 28.328 3.89417C27.1153 2.3927 26.366 1.06083 26 0C29.4568 4.87879 42.3162 15.6121 66.0991 19.5152C79.2025 21.6656 87.451 27.441 92.3708 33.4375C95.1363 33.4238 91.2186 19.0391 88.914 11.8485C107.719 30.2485 105.046 55.2929 101.359 65.5151Z" fill="#DF5B5B"/>
<path d="M95.1363 61.3333C92.5941 58.7705 89.9929 56.7042 87.3783 55.0606M26 0C29.4568 4.87879 42.3162 15.6121 66.0991 19.5152C79.2025 21.6656 87.451 27.441 92.3709 33.4375M26 0C34.9877 15.3333 56.2817 47.5267 64.025 49.757M26 0C27.8436 5.34344 39.4124 17.5636 70.9386 23.697C76.9304 24.9846 88.914 30.4116 88.914 41.8182M92.3709 33.4375C96.3805 38.3246 98.1792 43.3587 98.5931 46.697C98.9579 42.5152 100.16 35.9637 96.519 29.2727M92.3709 33.4375C95.1363 33.4238 91.2186 19.0391 88.914 11.8485C107.719 30.2485 105.046 55.2929 101.359 65.5151L93.7536 69C86.6095 62.7273 67.6201 51.1576 48.815 55.0606C55.7223 50.4847 71.7898 45.2613 87.3783 55.0606M87.3783 55.0606C79.5938 50.8788 62.2274 39.8667 55.0372 29.2727" stroke="black"/>
<path d="M116.768 72.4833C154.802 73.0363 164.77 101.286 165 115.342C140.884 118.107 90.8609 127.647 83.6951 143.685C76.5292 159.722 82.0873 181.244 85.7621 190C67.5719 181.705 55.6748 171.336 52 167.188C54.0671 161.888 57.3746 145.758 54.0673 123.638C50.8178 101.904 62.0415 82.3055 90.0802 75.2485L91.2743 67.6444C93.5711 66.2619 99.267 63.9116 103.677 65.5706L107.811 72.6605C110.677 72.4992 113.662 72.4382 116.768 72.4833Z" fill="#D1D8EE"/>
<path d="M90.0802 75.2485C62.0415 82.3055 50.8178 101.904 54.0673 123.638C57.3746 145.758 54.0671 161.888 52 167.188C55.6748 171.336 67.5719 181.705 85.7621 190C82.0873 181.244 76.5292 159.722 83.6951 143.685C90.8609 127.647 140.884 118.107 165 115.342C164.77 101.286 154.802 73.0363 116.768 72.4833C113.662 72.4382 110.677 72.4992 107.811 72.6605M90.0802 75.2485L91.2743 67.6444C93.5711 66.2619 99.267 63.9116 103.677 65.5706L107.811 72.6605M90.0802 75.2485C95.3836 73.9137 101.289 73.0275 107.811 72.6605" stroke="black"/>
<path d="M134.284 106.408C148.664 109.131 166.086 116.164 173 119.341C165.81 129.687 169.082 138.173 171.617 141.123C169.877 141.789 167.759 142.452 165.395 143.098C154.24 146.149 137.621 148.849 129.444 149.972C104.002 150.517 74.1358 142.938 62.3827 139.081C67.9784 133.091 63.7924 124.786 61 121.383C79.4362 115.257 119.904 103.685 134.284 106.408Z" fill="#D1D8EE" stroke="black"/>
<path d="M125.223 147C131.372 134.155 127.086 116.748 124.524 110L118.235 110.698C121.263 117.214 125.502 133.457 118.235 146.302L125.223 147Z" fill="black"/>
<path d="M113.344 145.604C119.493 132.758 115.207 118.145 112.645 111.396L105.657 112.792C108.685 119.308 114.322 132.06 107.055 144.906L113.344 145.604Z" fill="black"/>
<path d="M102.163 144.208C108.312 131.362 104.027 121.635 101.465 114.887L95.1756 115.585C98.2036 122.101 102.443 130.664 95.1756 143.509L102.163 144.208Z" fill="black"/>
<path d="M84.6941 118.377L90.2843 116.981C93.6383 124.8 92.1477 137.459 90.9831 142.113L86.0917 141.415C83.8556 134.713 84.2283 123.264 84.6941 118.377Z" fill="black"/>
<path d="M74.9115 121.17L80.5016 119.075C78.2654 124.102 79.5699 135.132 80.5016 140.019L76.309 138.623C72.9549 130.804 73.9798 123.73 74.9115 121.17Z" fill="black"/>
<path d="M139.897 144.906C139.897 144.906 148.981 132.34 142.692 112.094L135.704 110.698C138.732 117.214 140.875 133.457 133.608 146.302L139.897 144.906Z" fill="black"/>
<path d="M149.68 142.811C149.68 142.811 158.065 128.849 151.776 114.189L146.186 112.792C149.214 119.308 151.357 131.362 144.09 144.208L149.68 142.811Z" fill="black"/>
<path d="M159.462 141.415C159.462 141.415 165.751 130.943 161.559 116.981L155.969 115.585C157.366 121.868 159.462 131.642 153.872 142.811L159.462 141.415Z" fill="black"/>
<path d="M125.223 147C131.372 134.155 127.086 116.748 124.524 110L118.235 110.698C121.263 117.214 125.502 133.457 118.235 146.302L125.223 147Z" stroke="black"/>
<path d="M113.344 145.604C119.493 132.758 115.207 118.145 112.645 111.396L105.657 112.792C108.685 119.308 114.322 132.06 107.055 144.906L113.344 145.604Z" stroke="black"/>
<path d="M102.163 144.208C108.312 131.362 104.027 121.635 101.465 114.887L95.1756 115.585C98.2036 122.101 102.443 130.664 95.1756 143.509L102.163 144.208Z" stroke="black"/>
<path d="M84.6941 118.377L90.2843 116.981C93.6383 124.8 92.1477 137.459 90.9831 142.113L86.0917 141.415C83.8556 134.713 84.2283 123.264 84.6941 118.377Z" stroke="black"/>
<path d="M74.9115 121.17L80.5016 119.075C78.2654 124.102 79.5699 135.132 80.5016 140.019L76.309 138.623C72.9549 130.804 73.9798 123.73 74.9115 121.17Z" stroke="black"/>
<path d="M139.897 144.906C139.897 144.906 148.981 132.34 142.692 112.094L135.704 110.698C138.732 117.214 140.875 133.457 133.608 146.302L139.897 144.906Z" stroke="black"/>
<path d="M149.68 142.811C149.68 142.811 158.065 128.849 151.776 114.189L146.186 112.792C149.214 119.308 151.357 131.362 144.09 144.208L149.68 142.811Z" stroke="black"/>
<path d="M159.462 141.415C159.462 141.415 165.751 130.943 161.559 116.981L155.969 115.585C157.366 121.868 159.462 131.642 153.872 142.811L159.462 141.415Z" stroke="black"/>
<path d="M144.478 168.118C145.627 167.255 147.234 165.012 144.478 162.941C141.034 160.353 107.966 160.353 104.522 162.941C101.766 165.012 103.373 167.255 104.522 168.118M118.3 172C122.663 171.353 129.047 170.447 133.456 172" stroke="black"/>
<g style="mix-blend-mode:overlay">
<ellipse cx="85.054" cy="93.0253" rx="21.8804" ry="10.4757" transform="rotate(-23.158 85.054 93.0253)" fill="#EEF1F9" fill-opacity="0.46"/>
</g>
</g>
<defs>
<clipPath id="clip0_1_4">
<rect width="200" height="200" fill="white"/>
</clipPath>
</defs>
</svg>
