<svg width="200" height="200" viewBox="0 0 200 200" fill="none" xmlns="http://www.w3.org/2000/svg">
<path d="M132.411 71.4083C140.411 81.4083 141.077 90.5749 140.411 93.9083C122.411 117.408 66.9108 101.908 55.9108 89.4082C44.9108 76.9082 65.9108 47.9082 65.9108 55.4082C65.9108 61.4082 68.5773 64.5735 69.9105 65.4061C73.4498 48.9715 97.951 34.1306 94.9107 38.9082C92.2456 43.0962 107.186 59.3936 116.105 68.1403C111.348 61.9359 111.067 42.5715 112.911 50.4083C114.911 58.9083 122.411 58.9083 132.411 71.4083Z" fill="#BC643E"/>
<path d="M69.9105 72.9082C69.3194 70.4126 69.3753 67.8911 69.9105 65.4061M69.9105 65.4061C73.4498 48.9715 97.951 34.1306 94.9107 38.9082C92.1107 43.3082 108.744 61.0749 117.411 69.4083C111.411 65.4083 110.911 41.9083 112.911 50.4083C114.911 58.9083 122.411 58.9083 132.411 71.4083C140.411 81.4083 141.077 90.5749 140.411 93.9083C122.411 117.408 66.9108 101.908 55.9108 89.4082C44.9108 76.9082 65.9108 47.9082 65.9108 55.4082C65.9108 61.4082 68.5773 64.5735 69.9105 65.4061ZM87.4106 97.9082C84.0773 93.4082 79.4106 77.0082 87.4106 47.4082M133.411 90.4082C134.577 88.0749 134.611 80.6083 125.411 69.4083M61.9106 85.9082C59.744 84.0756 55.9106 78.9099 57.9106 72.9082M94.9107 91.4082C93.244 87.7415 90.4106 77.7082 92.4106 66.9082" stroke="black"/>
<path d="M57.4107 88.9081C75.0107 78.9081 85.0773 91.0748 87.9106 98.4081C93.0773 90.5748 110.811 78.7082 140.411 93.9082C140.744 94.7415 141.321 97.8082 144.121 103.408C149.594 106.412 153.147 110.502 154.911 113.908C154.982 115.4 154.92 117.764 154.546 120.387C159.168 114.894 171.211 104.208 182.411 105.408C181.911 115.575 179.211 138.708 172.411 149.908C163.911 163.908 158.041 168.408 152.976 160.908C152.648 162.18 152.268 163.192 151.911 163.908C140.573 168.209 129.705 174.813 125.387 177.776C125.291 177.843 125.195 177.909 125.098 177.976C110.128 188.256 94.1312 189.563 87.9106 188.908C67.0323 186.66 51.7253 167.697 44.1105 152.833C42.6704 154.372 40.7106 154.524 39.9107 154.408C26.4109 156.408 12.9105 105.408 19.9105 106.908C25.5105 108.108 32.0998 113.075 34.6944 115.408C33.4074 110.706 33.2219 106.052 33.4107 103.408C33.8169 103.227 34.2418 103.044 34.6837 102.859C47.1448 97.3958 54.9921 91.3268 57.4107 88.9081Z" fill="#5F9B43"/>
<path d="M57.4107 88.9081C75.0107 78.9081 85.0773 91.0748 87.9106 98.4081C93.0773 90.5748 110.811 78.7082 140.411 93.9082C140.744 94.7415 141.321 97.8082 144.121 103.408C149.594 106.412 153.147 110.502 154.911 113.908C154.982 115.4 154.92 117.764 154.546 120.387C159.168 114.894 171.211 104.208 182.411 105.408C181.911 115.575 179.211 138.708 172.411 149.908C163.911 163.908 158.041 168.408 152.976 160.908C152.648 162.18 152.268 163.192 151.911 163.908C140.573 168.209 129.705 174.813 125.387 177.776C125.291 177.843 125.195 177.909 125.098 177.976C110.128 188.256 94.1312 189.563 87.9106 188.908C67.0323 186.66 51.7253 167.697 44.1105 152.833C42.6704 154.372 40.7106 154.524 39.9107 154.408C26.4109 156.408 12.9105 105.408 19.9105 106.908C25.5105 108.108 32.0998 113.075 34.6944 115.408C33.4074 110.706 33.2219 106.052 33.4107 103.408C33.8169 103.227 34.2418 103.044 34.6837 102.859C47.1448 97.3958 54.9921 91.3268 57.4107 88.9081Z" fill="black" fill-opacity="0.2"/>
<path d="M87.9106 135.908L80.9106 130.908C79.4824 131.194 76.9039 132.899 76.4468 137.408M76.4106 139.908C76.3534 138.992 76.3705 138.161 76.4468 137.408M76.4468 137.408C73.6015 137.742 68.9108 140.008 72.9108 146.408C73.9108 146.908 76.7107 147.908 79.9107 147.908M91.4107 147.908C93.2441 147.908 97.4107 147.308 99.4107 144.908C101.411 142.508 97.2441 139.575 94.9107 138.408M92.4107 127.908C92.7441 126.075 94.6107 121.808 99.4107 119.408M103.911 117.908C105.911 116.075 116.511 113.808 142.911 119.408M79.9107 127.908C79.4106 125.575 78.0105 120.308 76.4106 117.908M73.4107 116.908C66.7441 115.075 51.4107 112.208 43.4107 115.408M33.4107 103.408C46.6107 97.8082 54.9107 91.4081 57.4107 88.9081C75.0107 78.9081 85.0773 91.0748 87.9106 98.4081C93.0773 90.5748 110.811 78.7082 140.411 93.9082C140.744 94.7415 141.321 97.8082 144.121 103.408M33.4107 103.408C44.2441 98.5749 68.3107 92.2082 77.9107 105.408M33.4107 103.408C33.2219 106.052 33.4075 110.706 34.6944 115.408M97.4107 106.908C131.811 90.1082 150.077 104.575 154.911 113.908C154.982 115.4 154.92 117.764 154.546 120.387M150.911 130.908C152.976 127.924 154.043 123.92 154.546 120.387M125.911 177.408C125.64 177.6 125.369 177.789 125.098 177.976M125.098 177.976C110.128 188.256 94.1312 189.563 87.9106 188.908C67.0323 186.66 51.7253 167.697 44.1105 152.833M125.098 177.976C129.202 175.12 140.311 168.308 151.911 163.908C152.268 163.192 152.648 162.18 152.976 160.908M150.911 138.408C154.68 148.145 154.174 156.259 152.976 160.908M154.546 120.387C159.168 114.894 171.211 104.208 182.411 105.408C181.911 115.575 179.211 138.708 172.411 149.908C163.911 163.908 158.041 168.408 152.976 160.908M34.6944 115.408C35.6794 119.007 37.3095 122.634 39.9107 125.408C40.4107 126.742 40.9105 130.608 38.9105 135.408C38.4128 136.603 38.7673 139.303 39.9107 142.891M34.6944 115.408C32.0998 113.075 25.5105 108.108 19.9105 106.908C12.9105 105.408 26.4109 156.408 39.9107 154.408C40.7106 154.524 42.6704 154.372 44.1105 152.833M44.1105 152.833C42.656 149.993 41.4821 147.303 40.6037 144.908M23.9106 113.908C25.6676 115.208 28.3845 117.568 30.9106 120.48M39.9107 142.891C30.3108 134.937 33.9107 131.588 36.9106 130.908C36.0151 127.217 33.5684 123.543 30.9106 120.48M39.9107 142.891C40.1163 143.536 40.3475 144.209 40.6037 144.908M40.6037 144.908C37.9054 143.063 32.1891 140.077 30.9106 142.891M30.9106 120.48C29.744 122.122 27.9106 126.708 29.9106 131.908M176.911 112.908C175.343 113.549 172.845 115.141 169.911 117.908M158.411 146.408C168.411 135.208 161.077 134.408 156.911 134.408C160.804 125.934 165.979 121.616 169.911 117.908M169.911 117.908C171.927 120.394 173.211 134.275 166.411 149.908C164.577 150.075 158.911 148.708 158.911 151.908M115.911 130.908C117.411 131.575 120.711 133.508 121.911 135.908C123.111 138.308 122.077 133.908 121.411 131.408C123.077 132.575 126.411 135.408 126.411 137.408C126.577 136.075 126.511 133.008 124.911 131.408C122.911 129.408 129.911 132.908 132.411 137.408C134.911 141.908 133.911 132.908 131.911 131.908M135.911 131.908C137.841 133.075 141.943 136.508 142.911 140.908M70.9106 131.408C69.4106 130.908 66.8105 132.408 65.1106 134.908C63.4106 137.408 63.4106 132.908 66.4106 130.408C65.4106 129.908 59.4106 133.408 59.4106 135.408C59.244 134.075 60.3723 131.857 62.1106 130.408C63.9106 128.908 58.4106 130.408 54.9106 134.408C51.4106 138.408 53.9106 130.908 55.9106 129.908M52.9107 128.908C50.4106 128.908 46.3788 131.008 45.4106 135.408" stroke="black"/>
<path d="M58.9106 167.408C58.0772 166.075 57.8108 159.208 63.411 158.408C69.0111 157.608 78.7444 160.075 82.911 161.408C87.5776 158.741 113.41 151.408 126.91 163.408C128.244 165.741 128.511 171.208 118.911 174.408M77.411 152.908C77.911 154.408 81.511 156.208 91.9109 151.408M101.411 172.908C96.9106 170.408 85.6106 167.208 76.4106 174.408" stroke="black"/>
<path d="M91.4106 144.908C89.8106 146.108 88.0772 146.075 87.4106 145.908C84.4106 145.408 85.9106 137.908 86.4106 139.408C86.8106 140.608 89.9106 143.575 91.4106 144.908Z" fill="black"/>
<path d="M82.9105 146.408C81.7105 144.808 81.7438 140.742 81.9105 138.908C80.0771 140.575 76.6104 144.108 77.4104 144.908C78.2104 145.708 81.4104 146.242 82.9105 146.408Z" fill="black"/>
<path d="M91.4106 144.908C89.8106 146.108 88.0772 146.075 87.4106 145.908C84.4106 145.408 85.9106 137.908 86.4106 139.408C86.8106 140.608 89.9106 143.575 91.4106 144.908Z" stroke="black"/>
<path d="M82.9105 146.408C81.7105 144.808 81.7438 140.742 81.9105 138.908C80.0771 140.575 76.6104 144.108 77.4104 144.908C78.2104 145.708 81.4104 146.242 82.9105 146.408Z" stroke="black"/>
<path d="M114.411 141.908C114.411 150.708 108.744 155.241 106.911 156.408C112.411 156.408 115.744 156.908 117.411 157.908C123.411 152.908 114.411 130.908 114.411 141.908Z" fill="#F0EAB6"/>
<path d="M63.9107 146.909C63.9107 151.309 66.5774 156.075 67.9107 157.909C62.7108 157.909 61.4107 158.575 61.4107 158.909C57.9107 151.909 63.9107 141.409 63.9107 146.909Z" fill="#F0EAB6"/>
<path d="M114.411 141.908C114.411 150.708 108.744 155.241 106.911 156.408C112.411 156.408 115.744 156.908 117.411 157.908C123.411 152.908 114.411 130.908 114.411 141.908Z" stroke="black"/>
<path d="M63.9107 146.909C63.9107 151.309 66.5774 156.075 67.9107 157.909C62.7108 157.909 61.4107 158.575 61.4107 158.909C57.9107 151.909 63.9107 141.409 63.9107 146.909Z" stroke="black"/>
<path d="M103.911 117.908C105.744 116.408 114.011 114.308 132.411 117.908C126.577 124.741 112.711 134.308 103.911 117.908Z" fill="#D9D9D9"/>
<path d="M72.4106 116.908C69.244 115.742 60.2106 113.508 49.4106 113.908C52.244 121.742 60.8106 133.308 72.4106 116.908Z" fill="#D9D9D9"/>
<path d="M103.911 117.908C105.744 116.408 114.011 114.308 132.411 117.908C126.577 124.741 112.711 134.308 103.911 117.908Z" stroke="black"/>
<path d="M72.4106 116.908C69.244 115.742 60.2106 113.508 49.4106 113.908C52.244 121.742 60.8106 133.308 72.4106 116.908Z" stroke="black"/>
<path d="M124.411 116.908C120.577 116.408 112.111 115.708 108.911 116.908C111.411 120.742 118.011 126.108 124.411 116.908Z" fill="black"/>
<path d="M67.4106 115.908C63.5773 115.242 55.7106 114.008 54.9106 114.408C56.5773 118.242 61.4106 123.908 67.4106 115.908Z" fill="black"/>
<path d="M124.411 116.908C120.577 116.408 112.111 115.708 108.911 116.908C111.411 120.742 118.011 126.108 124.411 116.908Z" stroke="black"/>
<path d="M67.4106 115.908C63.5773 115.242 55.7106 114.008 54.9106 114.408C56.5773 118.242 61.4106 123.908 67.4106 115.908Z" stroke="black"/>
</svg>
